<svg width="748" height="1080" viewBox="0 0 748 1080" fill="none" xmlns="http://www.w3.org/2000/svg">
<mask id="path-1-outside-1_6_31" maskUnits="userSpaceOnUse" x="3" y="178" width="745" height="732" fill="black">
<rect fill="white" x="3" y="178" width="745" height="732"/>
<path d="M672.894 217C689.427 220.2 701.694 225.8 709.694 233.8C718.227 241.8 722.494 251.133 722.494 261.8C722.494 279.4 717.427 292.2 707.294 300.2C697.694 308.2 682.227 311.4 660.894 309.8C612.894 306.067 575.294 303.667 548.094 302.6C521.427 301 486.227 299.933 442.494 299.4C422.76 397.533 404.627 496.2 388.094 595.4C382.227 631.667 376.094 673.8 369.694 721.8C363.294 769.267 359.027 807.667 356.894 837C355.827 852.467 349.427 864.467 337.694 873C325.96 881 311.827 885 295.294 885C277.694 885 264.094 880.733 254.494 872.2C244.894 863.667 240.094 852.467 240.094 838.6C240.094 825.8 241.96 804.733 245.694 775.4C249.96 745.533 254.76 714.333 260.094 681.8C265.96 649.267 270.494 621 273.694 597C279.56 556.467 286.227 516.2 293.694 476.2C301.16 436.2 308.627 398.333 316.094 362.6C317.694 354.6 319.56 345.533 321.694 335.4C323.827 324.733 326.227 313 328.894 300.2C276.627 301.8 235.56 306.067 205.694 313C175.827 319.933 154.494 329.8 141.694 342.6C129.427 354.867 123.294 370.867 123.294 390.6C123.294 408.733 128.627 426.067 139.294 442.6C141.427 446.333 142.494 450.333 142.494 454.6C142.494 464.733 136.36 474.333 124.094 483.4C112.36 491.933 100.094 496.2 87.2938 496.2C78.2271 496.2 70.7604 493.533 64.8938 488.2C54.2271 479.133 45.4271 466.333 38.4938 449.8C31.5604 432.733 28.0938 413.533 28.0938 392.2C28.0938 346.867 42.7604 310.6 72.0938 283.4C101.96 255.667 147.027 235.4 207.294 222.6C268.094 209.8 345.96 203.4 440.894 203.4C499.56 203.4 546.227 204.467 580.894 206.6C616.094 208.733 646.76 212.2 672.894 217Z"/>
</mask>
<path d="M672.894 217C689.427 220.2 701.694 225.8 709.694 233.8C718.227 241.8 722.494 251.133 722.494 261.8C722.494 279.4 717.427 292.2 707.294 300.2C697.694 308.2 682.227 311.4 660.894 309.8C612.894 306.067 575.294 303.667 548.094 302.6C521.427 301 486.227 299.933 442.494 299.4C422.76 397.533 404.627 496.2 388.094 595.4C382.227 631.667 376.094 673.8 369.694 721.8C363.294 769.267 359.027 807.667 356.894 837C355.827 852.467 349.427 864.467 337.694 873C325.96 881 311.827 885 295.294 885C277.694 885 264.094 880.733 254.494 872.2C244.894 863.667 240.094 852.467 240.094 838.6C240.094 825.8 241.96 804.733 245.694 775.4C249.96 745.533 254.76 714.333 260.094 681.8C265.96 649.267 270.494 621 273.694 597C279.56 556.467 286.227 516.2 293.694 476.2C301.16 436.2 308.627 398.333 316.094 362.6C317.694 354.6 319.56 345.533 321.694 335.4C323.827 324.733 326.227 313 328.894 300.2C276.627 301.8 235.56 306.067 205.694 313C175.827 319.933 154.494 329.8 141.694 342.6C129.427 354.867 123.294 370.867 123.294 390.6C123.294 408.733 128.627 426.067 139.294 442.6C141.427 446.333 142.494 450.333 142.494 454.6C142.494 464.733 136.36 474.333 124.094 483.4C112.36 491.933 100.094 496.2 87.2938 496.2C78.2271 496.2 70.7604 493.533 64.8938 488.2C54.2271 479.133 45.4271 466.333 38.4938 449.8C31.5604 432.733 28.0938 413.533 28.0938 392.2C28.0938 346.867 42.7604 310.6 72.0938 283.4C101.96 255.667 147.027 235.4 207.294 222.6C268.094 209.8 345.96 203.4 440.894 203.4C499.56 203.4 546.227 204.467 580.894 206.6C616.094 208.733 646.76 212.2 672.894 217Z" fill="url(#paint0_linear_6_31)"/>
<path d="M672.894 217L677.644 192.455L677.527 192.433L677.41 192.411L672.894 217ZM709.694 233.8L692.016 251.478L692.301 251.763L692.595 252.038L709.694 233.8ZM707.294 300.2L691.803 280.578L691.543 280.783L691.289 280.994L707.294 300.2ZM660.894 309.8L658.955 334.725L658.99 334.727L659.024 334.73L660.894 309.8ZM548.094 302.6L546.597 327.555L546.855 327.571L547.114 327.581L548.094 302.6ZM442.494 299.4L442.799 274.402L422.071 274.149L417.984 294.471L442.494 299.4ZM388.094 595.4L363.434 591.29L363.424 591.349L363.415 591.408L388.094 595.4ZM369.694 721.8L394.47 725.141L394.472 725.122L394.474 725.104L369.694 721.8ZM356.894 837L331.96 835.187L331.956 835.233L331.953 835.28L356.894 837ZM337.694 873L351.777 893.656L352.091 893.442L352.398 893.218L337.694 873ZM254.494 872.2L271.103 853.515L271.103 853.515L254.494 872.2ZM245.694 775.4L220.945 771.864L220.918 772.054L220.894 772.244L245.694 775.4ZM260.094 681.8L235.491 677.363L235.455 677.559L235.423 677.756L260.094 681.8ZM273.694 597L248.952 593.419L248.932 593.557L248.913 593.696L273.694 597ZM293.694 476.2L269.118 471.613L269.118 471.613L293.694 476.2ZM316.094 362.6L340.565 367.713L340.587 367.608L340.608 367.503L316.094 362.6ZM321.694 335.4L346.158 340.55L346.184 340.427L346.208 340.303L321.694 335.4ZM328.894 300.2L353.368 305.299L359.839 274.241L328.129 275.212L328.894 300.2ZM205.694 313L200.041 288.648L200.041 288.648L205.694 313ZM141.694 342.6L124.016 324.922L124.016 324.922L141.694 342.6ZM139.294 442.6L161 430.197L160.666 429.612L160.301 429.047L139.294 442.6ZM124.094 483.4L138.798 503.618L138.876 503.562L138.954 503.504L124.094 483.4ZM64.8938 488.2L81.7106 469.701L81.4023 469.421L81.085 469.151L64.8938 488.2ZM38.4938 449.8L15.3321 459.209L15.3848 459.339L15.4389 459.468L38.4938 449.8ZM72.0938 283.4L89.0922 301.732L89.0986 301.726L89.105 301.72L72.0938 283.4ZM207.294 222.6L202.143 198.136L202.122 198.141L202.1 198.145L207.294 222.6ZM580.894 206.6L579.358 231.553L579.37 231.553L579.381 231.554L580.894 206.6ZM668.143 241.544C682.033 244.233 688.877 248.339 692.016 251.478L727.371 216.122C714.51 203.261 696.821 196.167 677.644 192.455L668.143 241.544ZM692.595 252.038C696.628 255.819 697.494 258.752 697.494 261.8H747.494C747.494 243.515 739.826 227.781 726.792 215.562L692.595 252.038ZM697.494 261.8C697.494 274.711 693.937 278.893 691.803 280.578L722.785 319.822C740.917 305.507 747.494 284.089 747.494 261.8H697.494ZM691.289 280.994C689.216 282.722 681.909 286.306 662.764 284.87L659.024 334.73C682.545 336.494 706.171 333.678 723.298 319.406L691.289 280.994ZM662.832 284.875C614.715 281.133 576.746 278.704 549.073 277.619L547.114 327.581C573.841 328.629 611.073 331 658.955 334.725L662.832 284.875ZM549.591 277.645C522.359 276.011 486.714 274.937 442.799 274.402L442.189 324.398C485.74 324.929 520.496 325.989 546.597 327.555L549.591 277.645ZM417.984 294.471C398.196 392.878 380.013 491.818 363.434 591.29L412.754 599.51C429.242 500.582 447.325 402.189 467.003 304.328L417.984 294.471ZM363.415 591.408C357.501 627.962 351.335 670.333 344.913 718.496L394.474 725.104C400.853 677.267 406.953 635.371 412.773 599.392L363.415 591.408ZM344.918 718.459C338.486 766.162 334.146 805.128 331.96 835.187L381.828 838.813C383.908 810.206 388.101 772.372 394.47 725.141L344.918 718.459ZM331.953 835.28C331.355 843.947 328.29 848.926 322.989 852.782L352.398 893.218C370.564 880.007 380.299 860.986 381.835 838.72L331.953 835.28ZM323.61 852.344C316.677 857.071 307.65 860 295.294 860V910C316.004 910 335.244 904.929 351.777 893.656L323.61 852.344ZM295.294 860C281.537 860 274.67 856.685 271.103 853.515L237.885 890.885C253.518 904.781 273.85 910 295.294 910V860ZM271.103 853.515C267.3 850.135 265.094 845.966 265.094 838.6H215.094C215.094 858.968 222.487 877.199 237.885 890.885L271.103 853.515ZM265.094 838.6C265.094 827.527 266.767 807.838 270.494 778.556L220.894 772.244C217.154 801.628 215.094 824.073 215.094 838.6H265.094ZM270.442 778.936C274.683 749.253 279.456 718.224 284.764 685.844L235.423 677.756C230.064 710.443 225.238 741.813 220.945 771.864L270.442 778.936ZM284.697 686.237C290.609 653.452 295.21 624.791 298.474 600.304L248.913 593.696C245.778 617.209 241.312 645.081 235.491 677.363L284.697 686.237ZM298.436 600.581C304.254 560.382 310.865 520.451 318.269 480.787L269.118 471.613C261.589 511.949 254.867 552.551 248.952 593.419L298.436 600.581ZM318.269 480.787C325.707 440.944 333.139 403.253 340.565 367.713L291.622 357.487C284.115 393.413 276.614 431.456 269.118 471.613L318.269 480.787ZM340.608 367.503C342.188 359.604 344.037 350.622 346.158 340.55L297.23 330.25C295.084 340.445 293.199 349.596 291.579 357.697L340.608 367.503ZM346.208 340.303C348.326 329.713 350.713 318.046 353.368 305.299L304.419 295.101C301.742 307.954 299.328 319.754 297.179 330.497L346.208 340.303ZM328.129 275.212C275.193 276.832 232.244 281.172 200.041 288.648L211.347 337.352C238.876 330.962 278.061 326.768 329.659 325.188L328.129 275.212ZM200.041 288.648C168.421 295.988 141.691 307.247 124.016 324.922L159.371 360.278C167.296 352.353 183.233 343.879 211.347 337.352L200.041 288.648ZM124.016 324.922C106.403 342.535 98.2938 365.228 98.2938 390.6H148.294C148.294 376.505 152.451 367.198 159.371 360.278L124.016 324.922ZM98.2938 390.6C98.2938 413.95 105.244 435.938 118.286 456.153L160.301 429.047C152.01 416.195 148.294 403.517 148.294 390.6H98.2938ZM117.588 455.003C117.611 455.044 117.608 455.045 117.593 455.009C117.578 454.972 117.557 454.914 117.538 454.842C117.519 454.769 117.506 454.702 117.499 454.649C117.493 454.597 117.494 454.578 117.494 454.6H167.494C167.494 445.947 165.274 437.676 161 430.197L117.588 455.003ZM117.494 454.6C117.494 454.6 117.494 454.592 117.495 454.586C117.496 454.581 117.492 454.609 117.47 454.68C117.429 454.812 117.281 455.229 116.826 455.94C115.859 457.455 113.693 460 109.234 463.296L138.954 503.504C154.254 492.196 167.494 476.062 167.494 454.6H117.494ZM109.389 463.182C101.335 469.04 94.1196 471.2 87.2938 471.2V521.2C106.068 521.2 123.386 514.827 138.798 503.618L109.389 463.182ZM87.2938 471.2C83.4904 471.2 82.314 470.25 81.7106 469.701L48.0769 506.698C59.2069 516.817 72.9638 521.2 87.2938 521.2V471.2ZM81.085 469.151C74.1319 463.241 67.3764 454.029 61.5486 440.132L15.4389 459.468C23.4777 478.638 34.3223 495.025 48.7025 507.248L81.085 469.151ZM61.6554 440.391C56.1124 426.746 53.0938 410.811 53.0938 392.2H3.09375C3.09375 416.255 7.00845 438.72 15.3321 459.209L61.6554 440.391ZM53.0938 392.2C53.0938 352.802 65.5649 323.548 89.0922 301.732L55.0953 265.068C19.9559 297.652 3.09375 340.931 3.09375 392.2H53.0938ZM89.105 301.72C114.381 278.25 154.548 259.36 212.488 247.055L202.1 198.145C139.506 211.44 89.5403 233.084 55.0825 265.08L89.105 301.72ZM212.444 247.064C270.912 234.755 346.887 228.4 440.894 228.4V178.4C345.034 178.4 265.276 184.845 202.143 198.136L212.444 247.064ZM440.894 228.4C499.345 228.4 545.431 229.465 579.358 231.553L582.429 181.647C547.023 179.468 499.776 178.4 440.894 178.4V228.4ZM579.381 231.554C613.878 233.645 643.497 237.019 668.377 241.589L677.41 192.411C650.023 187.381 618.31 183.822 582.406 181.646L579.381 231.554Z" fill="white" mask="url(#path-1-outside-1_6_31)"/>
<mask id="path-3-outside-2_6_31" maskUnits="userSpaceOnUse" x="359" y="715" width="341" height="260" fill="black">
<rect fill="white" x="359" y="715" width="341" height="260"/>
<path d="M404.688 881.75C398.488 881.75 393.538 879.5 389.838 875C386.138 870.5 384.288 864.6 384.288 857.3C384.288 849.3 386.138 841.75 389.838 834.65C393.538 827.45 398.438 821.7 404.538 817.4C410.738 813 417.288 810.8 424.188 810.8C426.388 810.8 427.838 811.25 428.538 812.15C429.338 812.95 429.988 814.45 430.488 816.65C432.588 816.25 434.788 816.05 437.088 816.05C441.988 816.05 444.438 817.8 444.438 821.3C444.438 823.4 443.688 828.4 442.188 836.3C439.888 847.8 438.738 855.8 438.738 860.3C438.738 861.8 439.088 863 439.788 863.9C440.588 864.8 441.588 865.25 442.788 865.25C444.688 865.25 446.988 864.05 449.688 861.65C452.388 859.15 456.038 855.15 460.638 849.65C461.838 848.25 463.188 847.55 464.688 847.55C465.988 847.55 466.988 848.15 467.688 849.35C468.488 850.55 468.888 852.2 468.888 854.3C468.888 858.3 467.938 861.4 466.038 863.6C461.938 868.7 457.588 873 452.988 876.5C448.388 880 443.938 881.75 439.638 881.75C436.338 881.75 433.288 880.65 430.488 878.45C427.788 876.15 425.738 873.05 424.338 869.15C419.138 877.55 412.588 881.75 404.688 881.75ZM410.088 866.6C412.288 866.6 414.388 865.3 416.388 862.7C418.388 860.1 419.838 856.65 420.738 852.35L426.288 824.75C422.088 824.85 418.188 826.45 414.588 829.55C411.088 832.55 408.288 836.55 406.188 841.55C404.088 846.55 403.038 851.85 403.038 857.45C403.038 860.55 403.638 862.85 404.838 864.35C406.138 865.85 407.888 866.6 410.088 866.6ZM536.497 834.95C537.797 834.95 538.797 835.6 539.497 836.9C540.197 838.2 540.547 839.85 540.547 841.85C540.547 844.35 540.197 846.3 539.497 847.7C538.797 849 537.697 849.9 536.197 850.4C530.197 852.5 523.597 853.7 516.397 854C514.397 862.3 510.597 869 504.997 874.1C499.497 879.2 493.397 881.75 486.697 881.75C476.597 881.75 469.247 877.9 464.647 870.2C460.047 862.5 457.747 851.35 457.747 836.75C457.747 823.85 459.347 809.85 462.547 794.75C465.747 779.55 470.397 766.65 476.497 756.05C482.697 745.35 490.047 740 498.547 740C503.147 740 506.847 742 509.647 746C512.447 749.9 513.847 755 513.847 761.3C513.847 769.5 512.297 777.65 509.197 785.75C506.097 793.85 500.947 802.35 493.747 811.25C500.447 811.75 505.897 814.55 510.097 819.65C514.297 824.65 516.797 830.85 517.597 838.25C522.297 837.95 527.897 836.95 534.397 835.25C534.997 835.05 535.697 834.95 536.497 834.95ZM495.097 754.85C493.097 754.85 490.897 757.85 488.497 763.85C486.197 769.75 484.047 777.8 482.047 788C480.047 798.2 478.547 809.35 477.547 821.45C484.147 809.35 489.397 798.7 493.297 789.5C497.297 780.2 499.297 771.95 499.297 764.75C499.297 761.55 498.897 759.1 498.097 757.4C497.397 755.7 496.397 754.85 495.097 754.85ZM487.297 865.85C490.397 865.85 493.147 864.55 495.547 861.95C497.947 859.35 499.547 855.6 500.347 850.7C497.247 848.6 494.847 845.85 493.147 842.45C491.547 839.05 490.747 835.45 490.747 831.65C490.747 830.25 490.947 828.35 491.347 825.95H490.897C486.797 825.95 483.347 828 480.547 832.1C477.847 836.1 476.497 841.5 476.497 848.3C476.497 854 477.547 858.35 479.647 861.35C481.847 864.35 484.397 865.85 487.297 865.85ZM547.246 801.2C543.046 801.2 539.896 800.25 537.796 798.35C535.696 796.35 534.646 793.6 534.646 790.1C534.646 786.6 535.996 783.7 538.696 781.4C541.496 779 544.946 777.8 549.046 777.8C552.746 777.8 555.746 778.7 558.046 780.5C560.346 782.3 561.496 784.85 561.496 788.15C561.496 792.15 560.196 795.35 557.596 797.75C554.996 800.05 551.546 801.2 547.246 801.2ZM546.046 881.75C539.546 881.75 534.796 879.45 531.796 874.85C528.896 870.25 527.446 864.15 527.446 856.55C527.446 852.05 527.996 846.3 529.096 839.3C530.296 832.2 531.796 825.6 533.596 819.5C534.496 816.3 535.696 814.1 537.196 812.9C538.696 811.7 541.096 811.1 544.396 811.1C549.496 811.1 552.046 812.8 552.046 816.2C552.046 818.7 551.096 824.5 549.196 833.6C546.796 844.6 545.596 852.05 545.596 855.95C545.596 858.95 545.996 861.25 546.796 862.85C547.596 864.45 548.946 865.25 550.846 865.25C552.646 865.25 554.896 864 557.596 861.5C560.296 859 563.896 855.05 568.396 849.65C569.596 848.25 570.946 847.55 572.446 847.55C573.746 847.55 574.746 848.15 575.446 849.35C576.246 850.55 576.646 852.2 576.646 854.3C576.646 858.3 575.696 861.4 573.796 863.6C563.896 875.7 554.646 881.75 546.046 881.75ZM622.895 839C625.695 839 627.095 841.1 627.095 845.3C627.095 853.2 620.895 857.15 608.495 857.15C606.095 857.15 602.645 856.7 598.145 855.8C599.445 862 600.495 868.9 601.295 876.5C602.195 884 602.645 890.2 602.645 895.1C602.645 905.9 600.895 914.15 597.395 919.85C593.895 925.55 589.295 928.4 583.595 928.4C576.395 928.4 571.245 923.3 568.145 913.1C565.145 902.9 563.645 887.5 563.645 866.9C563.645 847.7 565.695 828.25 569.795 808.55C573.995 788.75 579.695 772.4 586.895 759.5C594.195 746.5 602.195 740 610.895 740C615.595 740 619.245 742.1 621.845 746.3C624.545 750.5 625.895 756.15 625.895 763.25C625.895 786.75 611.845 812.35 583.745 840.05C582.745 849.85 582.245 858.45 582.245 865.85C582.245 876.15 582.595 886.7 583.295 897.5C583.995 908.4 585.145 913.85 586.745 913.85C589.745 913.85 591.245 908.65 591.245 898.25C591.245 890.45 590.695 882.9 589.595 875.6C588.595 868.3 587.195 860.6 585.395 852.5C585.295 851.2 585.695 849.55 586.595 847.55C587.595 845.55 588.795 843.8 590.195 842.3C591.595 840.8 592.845 840.05 593.945 840.05C595.945 840.05 598.345 840.15 601.145 840.35C602.045 840.45 603.095 840.5 604.295 840.5C608.295 840.5 612.745 840.15 617.645 839.45C618.445 839.35 619.295 839.25 620.195 839.15C621.095 839.05 621.995 839 622.895 839ZM607.745 754.85C605.945 754.85 603.695 757.9 600.995 764C598.395 770.1 595.795 778.2 593.195 788.3C590.595 798.3 588.345 808.9 586.445 820.1C594.445 811 600.595 801.55 604.895 791.75C609.195 781.85 611.395 772.6 611.495 764C611.495 757.9 610.245 754.85 607.745 754.85ZM668.279 811.1C670.579 811.1 672.179 811.4 673.079 812C673.979 812.6 674.429 813.6 674.429 815C674.429 817.4 673.129 825.95 670.529 840.65C668.229 854.75 666.879 863.1 666.479 865.7C662.779 891.4 657.679 911.75 651.179 926.75C644.679 941.75 636.029 949.25 625.229 949.25C620.129 949.25 615.979 947.65 612.779 944.45C609.579 941.35 607.979 937.25 607.979 932.15C607.979 927.45 609.029 922.65 611.129 917.75C613.329 912.85 617.329 907.2 623.129 900.8C629.029 894.5 637.329 887.25 648.029 879.05L648.479 875.6C649.179 871.9 649.979 866.6 650.879 859.7C648.879 866.9 646.079 872.4 642.479 876.2C638.879 879.9 635.079 881.75 631.079 881.75C626.579 881.75 622.879 879.7 619.979 875.6C617.179 871.4 615.779 866.2 615.779 860C615.779 852.5 616.279 845.65 617.279 839.45C618.279 833.15 619.929 826.5 622.229 819.5C623.229 816.5 624.629 814.35 626.429 813.05C628.229 811.75 631.079 811.1 634.979 811.1C637.179 811.1 638.679 811.45 639.479 812.15C640.379 812.85 640.829 813.9 640.829 815.3C640.829 816.1 640.279 818.8 639.179 823.4C638.179 827.1 637.379 830.45 636.779 833.45C635.979 837.55 635.279 841.5 634.679 845.3C634.079 849 633.779 852.05 633.779 854.45C633.779 858.25 634.829 860.15 636.929 860.15C638.429 860.15 640.279 858.65 642.479 855.65C644.779 852.65 647.179 848.1 649.679 842C652.279 835.9 654.779 828.4 657.179 819.5C657.979 816.5 659.179 814.35 660.779 813.05C662.479 811.75 664.979 811.1 668.279 811.1ZM626.879 934.7C629.379 934.7 632.179 931.8 635.279 926C638.379 920.2 641.479 910.55 644.579 897.05C636.879 903.55 631.279 909.45 627.779 914.75C624.379 920.15 622.679 924.85 622.679 928.85C622.679 930.55 622.979 931.95 623.579 933.05C624.279 934.15 625.379 934.7 626.879 934.7Z"/>
</mask>
<path d="M404.688 881.75C398.488 881.75 393.538 879.5 389.838 875C386.138 870.5 384.288 864.6 384.288 857.3C384.288 849.3 386.138 841.75 389.838 834.65C393.538 827.45 398.438 821.7 404.538 817.4C410.738 813 417.288 810.8 424.188 810.8C426.388 810.8 427.838 811.25 428.538 812.15C429.338 812.95 429.988 814.45 430.488 816.65C432.588 816.25 434.788 816.05 437.088 816.05C441.988 816.05 444.438 817.8 444.438 821.3C444.438 823.4 443.688 828.4 442.188 836.3C439.888 847.8 438.738 855.8 438.738 860.3C438.738 861.8 439.088 863 439.788 863.9C440.588 864.8 441.588 865.25 442.788 865.25C444.688 865.25 446.988 864.05 449.688 861.65C452.388 859.15 456.038 855.15 460.638 849.65C461.838 848.25 463.188 847.55 464.688 847.55C465.988 847.55 466.988 848.15 467.688 849.35C468.488 850.55 468.888 852.2 468.888 854.3C468.888 858.3 467.938 861.4 466.038 863.6C461.938 868.7 457.588 873 452.988 876.5C448.388 880 443.938 881.75 439.638 881.75C436.338 881.75 433.288 880.65 430.488 878.45C427.788 876.15 425.738 873.05 424.338 869.15C419.138 877.55 412.588 881.75 404.688 881.75ZM410.088 866.6C412.288 866.6 414.388 865.3 416.388 862.7C418.388 860.1 419.838 856.65 420.738 852.35L426.288 824.75C422.088 824.85 418.188 826.45 414.588 829.55C411.088 832.55 408.288 836.55 406.188 841.55C404.088 846.55 403.038 851.85 403.038 857.45C403.038 860.55 403.638 862.85 404.838 864.35C406.138 865.85 407.888 866.6 410.088 866.6ZM536.497 834.95C537.797 834.95 538.797 835.6 539.497 836.9C540.197 838.2 540.547 839.85 540.547 841.85C540.547 844.35 540.197 846.3 539.497 847.7C538.797 849 537.697 849.9 536.197 850.4C530.197 852.5 523.597 853.7 516.397 854C514.397 862.3 510.597 869 504.997 874.1C499.497 879.2 493.397 881.75 486.697 881.75C476.597 881.75 469.247 877.9 464.647 870.2C460.047 862.5 457.747 851.35 457.747 836.75C457.747 823.85 459.347 809.85 462.547 794.75C465.747 779.55 470.397 766.65 476.497 756.05C482.697 745.35 490.047 740 498.547 740C503.147 740 506.847 742 509.647 746C512.447 749.9 513.847 755 513.847 761.3C513.847 769.5 512.297 777.65 509.197 785.75C506.097 793.85 500.947 802.35 493.747 811.25C500.447 811.75 505.897 814.55 510.097 819.65C514.297 824.65 516.797 830.85 517.597 838.25C522.297 837.95 527.897 836.95 534.397 835.25C534.997 835.05 535.697 834.95 536.497 834.95ZM495.097 754.85C493.097 754.85 490.897 757.85 488.497 763.85C486.197 769.75 484.047 777.8 482.047 788C480.047 798.2 478.547 809.35 477.547 821.45C484.147 809.35 489.397 798.7 493.297 789.5C497.297 780.2 499.297 771.95 499.297 764.75C499.297 761.55 498.897 759.1 498.097 757.4C497.397 755.7 496.397 754.85 495.097 754.85ZM487.297 865.85C490.397 865.85 493.147 864.55 495.547 861.95C497.947 859.35 499.547 855.6 500.347 850.7C497.247 848.6 494.847 845.85 493.147 842.45C491.547 839.05 490.747 835.45 490.747 831.65C490.747 830.25 490.947 828.35 491.347 825.95H490.897C486.797 825.95 483.347 828 480.547 832.1C477.847 836.1 476.497 841.5 476.497 848.3C476.497 854 477.547 858.35 479.647 861.35C481.847 864.35 484.397 865.85 487.297 865.85ZM547.246 801.2C543.046 801.2 539.896 800.25 537.796 798.35C535.696 796.35 534.646 793.6 534.646 790.1C534.646 786.6 535.996 783.7 538.696 781.4C541.496 779 544.946 777.8 549.046 777.8C552.746 777.8 555.746 778.7 558.046 780.5C560.346 782.3 561.496 784.85 561.496 788.15C561.496 792.15 560.196 795.35 557.596 797.75C554.996 800.05 551.546 801.2 547.246 801.2ZM546.046 881.75C539.546 881.75 534.796 879.45 531.796 874.85C528.896 870.25 527.446 864.15 527.446 856.55C527.446 852.05 527.996 846.3 529.096 839.3C530.296 832.2 531.796 825.6 533.596 819.5C534.496 816.3 535.696 814.1 537.196 812.9C538.696 811.7 541.096 811.1 544.396 811.1C549.496 811.1 552.046 812.8 552.046 816.2C552.046 818.7 551.096 824.5 549.196 833.6C546.796 844.6 545.596 852.05 545.596 855.95C545.596 858.95 545.996 861.25 546.796 862.85C547.596 864.45 548.946 865.25 550.846 865.25C552.646 865.25 554.896 864 557.596 861.5C560.296 859 563.896 855.05 568.396 849.65C569.596 848.25 570.946 847.55 572.446 847.55C573.746 847.55 574.746 848.15 575.446 849.35C576.246 850.55 576.646 852.2 576.646 854.3C576.646 858.3 575.696 861.4 573.796 863.6C563.896 875.7 554.646 881.75 546.046 881.75ZM622.895 839C625.695 839 627.095 841.1 627.095 845.3C627.095 853.2 620.895 857.15 608.495 857.15C606.095 857.15 602.645 856.7 598.145 855.8C599.445 862 600.495 868.9 601.295 876.5C602.195 884 602.645 890.2 602.645 895.1C602.645 905.9 600.895 914.15 597.395 919.85C593.895 925.55 589.295 928.4 583.595 928.4C576.395 928.4 571.245 923.3 568.145 913.1C565.145 902.9 563.645 887.5 563.645 866.9C563.645 847.7 565.695 828.25 569.795 808.55C573.995 788.75 579.695 772.4 586.895 759.5C594.195 746.5 602.195 740 610.895 740C615.595 740 619.245 742.1 621.845 746.3C624.545 750.5 625.895 756.15 625.895 763.25C625.895 786.75 611.845 812.35 583.745 840.05C582.745 849.85 582.245 858.45 582.245 865.85C582.245 876.15 582.595 886.7 583.295 897.5C583.995 908.4 585.145 913.85 586.745 913.85C589.745 913.85 591.245 908.65 591.245 898.25C591.245 890.45 590.695 882.9 589.595 875.6C588.595 868.3 587.195 860.6 585.395 852.5C585.295 851.2 585.695 849.55 586.595 847.55C587.595 845.55 588.795 843.8 590.195 842.3C591.595 840.8 592.845 840.05 593.945 840.05C595.945 840.05 598.345 840.15 601.145 840.35C602.045 840.45 603.095 840.5 604.295 840.5C608.295 840.5 612.745 840.15 617.645 839.45C618.445 839.35 619.295 839.25 620.195 839.15C621.095 839.05 621.995 839 622.895 839ZM607.745 754.85C605.945 754.85 603.695 757.9 600.995 764C598.395 770.1 595.795 778.2 593.195 788.3C590.595 798.3 588.345 808.9 586.445 820.1C594.445 811 600.595 801.55 604.895 791.75C609.195 781.85 611.395 772.6 611.495 764C611.495 757.9 610.245 754.85 607.745 754.85ZM668.279 811.1C670.579 811.1 672.179 811.4 673.079 812C673.979 812.6 674.429 813.6 674.429 815C674.429 817.4 673.129 825.95 670.529 840.65C668.229 854.75 666.879 863.1 666.479 865.7C662.779 891.4 657.679 911.75 651.179 926.75C644.679 941.75 636.029 949.25 625.229 949.25C620.129 949.25 615.979 947.65 612.779 944.45C609.579 941.35 607.979 937.25 607.979 932.15C607.979 927.45 609.029 922.65 611.129 917.75C613.329 912.85 617.329 907.2 623.129 900.8C629.029 894.5 637.329 887.25 648.029 879.05L648.479 875.6C649.179 871.9 649.979 866.6 650.879 859.7C648.879 866.9 646.079 872.4 642.479 876.2C638.879 879.9 635.079 881.75 631.079 881.75C626.579 881.75 622.879 879.7 619.979 875.6C617.179 871.4 615.779 866.2 615.779 860C615.779 852.5 616.279 845.65 617.279 839.45C618.279 833.15 619.929 826.5 622.229 819.5C623.229 816.5 624.629 814.35 626.429 813.05C628.229 811.75 631.079 811.1 634.979 811.1C637.179 811.1 638.679 811.45 639.479 812.15C640.379 812.85 640.829 813.9 640.829 815.3C640.829 816.1 640.279 818.8 639.179 823.4C638.179 827.1 637.379 830.45 636.779 833.45C635.979 837.55 635.279 841.5 634.679 845.3C634.079 849 633.779 852.05 633.779 854.45C633.779 858.25 634.829 860.15 636.929 860.15C638.429 860.15 640.279 858.65 642.479 855.65C644.779 852.65 647.179 848.1 649.679 842C652.279 835.9 654.779 828.4 657.179 819.5C657.979 816.5 659.179 814.35 660.779 813.05C662.479 811.75 664.979 811.1 668.279 811.1ZM626.879 934.7C629.379 934.7 632.179 931.8 635.279 926C638.379 920.2 641.479 910.55 644.579 897.05C636.879 903.55 631.279 909.45 627.779 914.75C624.379 920.15 622.679 924.85 622.679 928.85C622.679 930.55 622.979 931.95 623.579 933.05C624.279 934.15 625.379 934.7 626.879 934.7Z" fill="url(#paint1_linear_6_31)"/>
<path d="M389.838 875L409.149 859.122L409.149 859.122L389.838 875ZM389.838 834.65L412.008 846.203L412.041 846.14L412.074 846.077L389.838 834.65ZM404.538 817.4L418.942 837.833L418.974 837.811L419.007 837.788L404.538 817.4ZM428.538 812.15L408.804 827.499L409.76 828.727L410.86 829.828L428.538 812.15ZM430.488 816.65L406.11 822.191L411.458 845.724L435.166 841.208L430.488 816.65ZM442.188 836.3L466.703 841.203L466.727 841.083L466.749 840.964L442.188 836.3ZM439.788 863.9L420.054 879.249L420.558 879.896L421.103 880.509L439.788 863.9ZM449.688 861.65L466.297 880.335L466.487 880.167L466.673 879.994L449.688 861.65ZM460.638 849.65L441.657 833.38L441.558 833.495L441.461 833.611L460.638 849.65ZM467.688 849.35L446.094 861.947L446.471 862.594L446.887 863.218L467.688 849.35ZM466.038 863.6L447.118 847.26L446.83 847.593L446.554 847.936L466.038 863.6ZM452.988 876.5L468.126 896.396L468.126 896.396L452.988 876.5ZM430.488 878.45L414.276 897.481L414.653 897.802L415.043 898.108L430.488 878.45ZM424.338 869.15L447.868 860.703L430.359 811.928L403.081 855.991L424.338 869.15ZM416.388 862.7L396.572 847.457L396.572 847.457L416.388 862.7ZM420.738 852.35L445.208 857.472L445.228 857.375L445.247 857.279L420.738 852.35ZM426.288 824.75L450.797 829.679L456.964 799.013L425.693 799.757L426.288 824.75ZM414.588 829.55L430.858 848.531L430.88 848.513L430.901 848.494L414.588 829.55ZM406.188 841.55L429.238 851.231L429.238 851.231L406.188 841.55ZM404.838 864.35L385.316 879.967L385.624 880.352L385.946 880.723L404.838 864.35ZM404.688 856.75C404.657 856.75 405.471 856.758 406.671 857.303C407.915 857.869 408.752 858.639 409.149 859.122L370.527 890.878C379.315 901.565 391.561 906.75 404.688 906.75V856.75ZM409.149 859.122C409.284 859.287 409.392 859.453 409.466 859.592C409.539 859.729 409.551 859.785 409.53 859.72C409.487 859.582 409.288 858.858 409.288 857.3H359.288C359.288 868.888 362.296 880.866 370.527 890.878L409.149 859.122ZM409.288 857.3C409.288 853.326 410.166 849.739 412.008 846.203L367.668 823.097C362.11 833.761 359.288 845.274 359.288 857.3H409.288ZM412.074 846.077C414.089 842.156 416.416 839.614 418.942 837.833L390.134 796.967C380.46 803.786 372.988 812.744 367.602 823.223L412.074 846.077ZM419.007 837.788C421.43 836.068 423 835.8 424.188 835.8V785.8C411.576 785.8 400.046 789.932 390.069 797.012L419.007 837.788ZM424.188 835.8C423.798 835.8 422.003 835.786 419.516 835.014C416.953 834.219 412.483 832.228 408.804 827.499L448.272 796.801C439.893 786.029 427.515 785.8 424.188 785.8V835.8ZM410.86 829.828C408.28 827.247 407.103 824.776 406.687 823.815C406.215 822.727 406.084 822.075 406.11 822.191L454.866 811.109C454.177 808.074 452.301 800.558 446.216 794.472L410.86 829.828ZM435.166 841.208C435.613 841.123 436.24 841.05 437.088 841.05V791.05C433.336 791.05 429.564 791.377 425.81 792.092L435.166 841.208ZM437.088 841.05C436.906 841.05 435.955 841.042 434.513 840.698C433.06 840.352 430.663 839.558 428.07 837.706C425.322 835.743 422.912 832.978 421.324 829.575C419.798 826.304 419.438 823.33 419.438 821.3H469.438C469.438 812.979 466.061 803.397 457.132 797.019C449.752 791.748 441.759 791.05 437.088 791.05V841.05ZM419.438 821.3C419.438 820.551 419.491 820.265 419.436 820.793C419.392 821.204 419.306 821.892 419.152 822.916C418.844 824.968 418.347 827.843 417.627 831.636L466.749 840.964C468.097 833.867 469.438 826.268 469.438 821.3H419.438ZM417.674 831.397C415.405 842.742 413.738 853.006 413.738 860.3H463.738C463.738 858.594 464.372 852.858 466.703 841.203L417.674 831.397ZM413.738 860.3C413.738 865.601 414.999 872.749 420.054 879.249L459.522 848.551C463.177 853.251 463.738 857.999 463.738 860.3H413.738ZM421.103 880.509C426.628 886.725 434.419 890.25 442.788 890.25V840.25C445.388 840.25 448.378 840.756 451.397 842.114C454.414 843.472 456.764 845.368 458.473 847.291L421.103 880.509ZM442.788 890.25C454.346 890.25 462.631 883.594 466.297 880.335L433.079 842.965C432.711 843.292 433.152 842.823 434.374 842.185C435.554 841.57 438.513 840.25 442.788 840.25V890.25ZM466.673 879.994C470.574 876.383 475.044 871.393 479.815 865.689L441.461 833.611C437.032 838.907 434.202 841.917 432.703 843.306L466.673 879.994ZM479.619 865.92C478.564 867.151 476.767 868.864 474.059 870.269C471.229 871.736 468.001 872.55 464.688 872.55V822.55C454.245 822.55 446.42 827.823 441.657 833.38L479.619 865.92ZM464.688 872.55C461.341 872.55 457.37 871.729 453.551 869.437C449.811 867.193 447.459 864.287 446.094 861.947L489.283 836.753C484.478 828.516 475.6 822.55 464.688 822.55V872.55ZM446.887 863.218C443.965 858.835 443.888 854.999 443.888 854.3H493.888C493.888 849.401 493.011 842.265 488.489 835.482L446.887 863.218ZM443.888 854.3C443.888 854.556 443.837 851.057 447.118 847.26L484.959 879.94C492.039 871.743 493.888 862.044 493.888 854.3H443.888ZM446.554 847.936C443.561 851.659 440.639 854.482 437.85 856.604L468.126 896.396C474.537 891.518 480.315 885.741 485.522 879.264L446.554 847.936ZM437.85 856.604C437.014 857.241 436.743 857.293 437.051 857.172C437.415 857.029 438.325 856.75 439.638 856.75V906.75C451.018 906.75 460.66 902.076 468.126 896.396L437.85 856.604ZM439.638 856.75C440.827 856.75 442.113 856.959 443.357 857.408C444.579 857.848 445.439 858.403 445.934 858.792L415.043 898.108C421.876 903.477 430.281 906.75 439.638 906.75V856.75ZM446.7 859.419C447.219 859.861 447.572 860.298 447.778 860.61C447.974 860.906 447.969 860.984 447.868 860.703L400.808 877.597C403.432 884.906 407.734 891.908 414.276 897.481L446.7 859.419ZM403.081 855.991C401.934 857.845 401.433 857.939 402.031 857.555C402.343 857.355 402.808 857.123 403.382 856.956C403.954 856.79 404.42 856.75 404.688 856.75V906.75C423.476 906.75 437.15 895.951 445.595 882.309L403.081 855.991ZM410.088 891.6C423.286 891.6 431.875 883.57 436.204 877.943L396.572 847.457C396.901 847.03 401.29 841.6 410.088 841.6V891.6ZM436.204 877.943C441.137 871.529 443.786 864.263 445.208 857.472L396.268 847.228C396.181 847.645 396.099 847.951 396.036 848.161C395.972 848.371 395.931 848.47 395.928 848.476C395.922 848.491 396.092 848.082 396.572 847.457L436.204 877.943ZM445.247 857.279L450.797 829.679L401.779 819.821L396.229 847.421L445.247 857.279ZM425.693 799.757C414.959 800.013 405.65 804.255 398.275 810.606L430.901 848.494C430.921 848.477 430.53 848.814 429.702 849.154C428.836 849.51 427.847 849.72 426.883 849.743L425.693 799.757ZM398.318 810.569C391.387 816.509 386.48 823.914 383.139 831.869L429.238 851.231C430.096 849.186 430.789 848.591 430.858 848.531L398.318 810.569ZM383.139 831.869C379.709 840.035 378.038 848.636 378.038 857.45H428.038C428.038 855.064 428.467 853.065 429.238 851.231L383.139 831.869ZM378.038 857.45C378.038 862.987 378.971 872.035 385.316 879.967L424.36 848.733C426.407 851.292 427.297 853.728 427.679 855.189C427.872 855.931 427.958 856.507 427.998 856.864C428.038 857.223 428.038 857.429 428.038 857.45H378.038ZM385.946 880.723C392.543 888.335 401.519 891.6 410.088 891.6V841.6C411.852 841.6 414.29 841.909 416.974 843.059C419.723 844.237 422.012 845.994 423.73 847.977L385.946 880.723ZM539.497 836.9L517.485 848.752L517.485 848.753L539.497 836.9ZM539.497 847.7L561.509 859.552L561.688 859.219L561.858 858.88L539.497 847.7ZM536.197 850.4L528.291 826.683L528.114 826.742L527.938 826.804L536.197 850.4ZM516.397 854L515.356 829.022L496.511 829.807L492.093 848.144L516.397 854ZM504.997 874.1L488.164 855.616L488.081 855.692L487.999 855.768L504.997 874.1ZM464.647 870.2L486.109 857.379L486.109 857.379L464.647 870.2ZM462.547 794.75L487.004 799.933L487.007 799.917L487.011 799.9L462.547 794.75ZM476.497 756.05L454.866 743.516L454.847 743.548L454.829 743.581L476.497 756.05ZM509.647 746L489.166 760.337L489.252 760.459L489.339 760.58L509.647 746ZM509.197 785.75L532.546 794.686L532.546 794.686L509.197 785.75ZM493.747 811.25L474.311 795.526L444.295 832.629L491.887 836.181L493.747 811.25ZM510.097 819.65L490.799 835.543L490.876 835.637L490.954 835.73L510.097 819.65ZM517.597 838.25L492.742 840.937L495.313 864.723L519.19 863.199L517.597 838.25ZM534.397 835.25L540.723 859.436L541.521 859.228L542.303 858.967L534.397 835.25ZM488.497 763.85L465.285 754.565L465.244 754.667L465.204 754.77L488.497 763.85ZM482.047 788L457.514 783.19L457.514 783.19L482.047 788ZM477.547 821.45L452.632 819.391L499.494 833.421L477.547 821.45ZM493.297 789.5L470.331 779.622L470.305 779.682L470.28 779.743L493.297 789.5ZM498.097 757.4L474.98 766.919L475.215 767.488L475.477 768.045L498.097 757.4ZM495.547 861.95L477.177 844.993L477.177 844.993L495.547 861.95ZM500.347 850.7L525.02 854.728L527.595 838.962L514.368 830.002L500.347 850.7ZM493.147 842.45L470.527 853.095L470.653 853.364L470.786 853.63L493.147 842.45ZM491.347 825.95L516.007 830.06L520.859 800.95H491.347V825.95ZM480.547 832.1L459.902 818.001L459.864 818.057L459.826 818.113L480.547 832.1ZM479.647 861.35L459.166 875.687L459.324 875.912L459.487 876.134L479.647 861.35ZM536.497 859.95C532.764 859.95 528.517 858.946 524.597 856.399C520.84 853.956 518.656 850.927 517.485 848.752L561.509 825.048C557.169 816.988 548.42 809.95 536.497 809.95V859.95ZM517.485 848.753C515.652 845.348 515.547 842.585 515.547 841.85H565.547C565.547 837.115 564.742 831.052 561.509 825.047L517.485 848.753ZM515.547 841.85C515.547 841.984 515.534 841.573 515.678 840.771C515.818 839.988 516.179 838.434 517.136 836.52L561.858 858.88C565.028 852.539 565.547 846.162 565.547 841.85H515.547ZM517.485 835.848C518.624 833.733 520.237 831.702 522.316 830.001C524.37 828.32 526.479 827.287 528.291 826.683L544.103 874.117C551.175 871.76 557.563 866.881 561.509 859.552L517.485 835.848ZM527.938 826.804C524.55 827.99 520.418 828.811 515.356 829.022L517.438 878.978C526.776 878.589 535.844 877.01 544.456 873.996L527.938 826.804ZM492.093 848.144C491.11 852.223 489.608 854.301 488.164 855.616L521.83 892.584C531.586 883.699 537.684 872.377 540.701 859.856L492.093 848.144ZM487.999 855.768C487.117 856.586 486.655 856.772 486.655 856.772C486.643 856.777 486.673 856.764 486.725 856.754C486.776 856.744 486.776 856.75 486.697 856.75V906.75C500.471 906.75 512.47 901.265 521.996 892.432L487.999 855.768ZM486.697 856.75C485.753 856.75 485.225 856.66 485.024 856.615C484.84 856.575 484.941 856.576 485.21 856.717C485.337 856.784 485.478 856.869 485.621 856.972C485.764 857.076 485.887 857.181 485.987 857.277C486.197 857.48 486.218 857.562 486.109 857.379L443.185 883.021C452.939 899.348 469.125 906.75 486.697 906.75V856.75ZM486.109 857.379C484.852 855.274 482.747 849.381 482.747 836.75H432.747C432.747 853.319 435.242 869.726 443.185 883.021L486.109 857.379ZM482.747 836.75C482.747 825.892 484.097 813.65 487.004 799.933L438.09 789.567C434.597 806.05 432.747 821.808 432.747 836.75H482.747ZM487.011 799.9C489.808 786.611 493.675 776.323 498.165 768.519L454.829 743.581C447.119 756.977 441.686 772.489 438.083 789.6L487.011 799.9ZM498.128 768.584C499.068 766.962 499.867 765.864 500.465 765.155C501.06 764.451 501.384 764.216 501.372 764.225C501.337 764.251 501.003 764.481 500.383 764.69C499.746 764.905 499.096 765 498.547 765V715C477.422 715 463.3 728.961 454.866 743.516L498.128 768.584ZM498.547 765C497.094 765 495.02 764.647 492.884 763.493C490.803 762.367 489.637 761.01 489.166 760.337L530.128 731.663C522.989 721.465 511.879 715 498.547 715V765ZM489.339 760.58C489.104 760.252 488.939 759.955 488.83 759.722C488.723 759.493 488.687 759.362 488.689 759.368C488.697 759.397 488.847 759.973 488.847 761.3H538.847C538.847 751.391 536.633 740.721 529.955 731.42L489.339 760.58ZM488.847 761.3C488.847 766.272 487.92 771.401 485.849 776.814L532.546 794.686C536.674 783.899 538.847 772.728 538.847 761.3H488.847ZM485.849 776.814C483.934 781.818 480.354 788.056 474.311 795.526L513.183 826.974C521.54 816.644 528.261 805.882 532.546 794.686L485.849 776.814ZM491.887 836.181C492.081 836.195 492.1 836.213 491.985 836.182C491.865 836.149 491.668 836.082 491.435 835.962C491.201 835.842 491.01 835.71 490.876 835.601C490.746 835.494 490.726 835.454 490.799 835.543L529.395 803.757C520.777 793.292 508.98 787.317 495.608 786.319L491.887 836.181ZM490.954 835.73C491.532 836.418 492.398 837.758 492.742 840.937L542.452 835.563C541.196 823.942 537.062 812.882 529.24 803.57L490.954 835.73ZM519.19 863.199C526.004 862.764 533.27 861.386 540.723 859.436L528.071 811.064C522.524 812.514 518.59 813.136 516.005 813.301L519.19 863.199ZM542.303 858.967C539.781 859.808 537.706 859.95 536.497 859.95V809.95C533.688 809.95 530.213 810.292 526.491 811.533L542.303 858.967ZM495.097 729.85C481.346 729.85 473.769 739.612 471.787 742.316C468.855 746.313 466.784 750.819 465.285 754.565L511.709 773.135C512.61 770.881 512.839 770.887 512.107 771.884C511.718 772.414 510.449 774.071 508.091 775.756C505.605 777.531 501.138 779.85 495.097 779.85V729.85ZM465.204 754.77C462.134 762.647 459.643 772.331 457.514 783.19L506.58 792.81C508.451 783.269 510.261 776.853 511.79 772.93L465.204 754.77ZM457.514 783.19C455.309 794.435 453.696 806.517 452.632 819.391L502.462 823.509C503.398 812.183 504.785 801.965 506.58 792.81L457.514 783.19ZM499.494 833.421C506.352 820.85 512 809.434 516.314 799.257L470.28 779.743C466.794 787.966 461.942 797.85 455.6 809.479L499.494 833.421ZM516.263 799.378C521.098 788.135 524.297 776.429 524.297 764.75H474.297C474.297 767.471 473.496 772.265 470.331 779.622L516.263 799.378ZM524.297 764.75C524.297 760.11 523.819 753.346 520.718 746.755L475.477 768.045C474.63 766.247 474.385 764.918 474.324 764.541C474.255 764.117 474.297 764.135 474.297 764.75H524.297ZM521.214 747.881C518.549 741.41 510.716 729.85 495.097 729.85V779.85C489.753 779.85 484.603 777.913 480.631 774.536C477.127 771.558 475.574 768.362 474.98 766.919L521.214 747.881ZM487.297 890.85C498.391 890.85 507.521 885.836 513.917 878.907L477.177 844.993C477.803 844.315 479.042 843.199 481 842.273C483.031 841.313 485.225 840.85 487.297 840.85V890.85ZM513.917 878.907C520.728 871.529 523.737 862.589 525.02 854.728L475.674 846.672C475.531 847.548 475.413 847.704 475.553 847.377C475.706 847.016 476.168 846.086 477.177 844.993L513.917 878.907ZM514.368 830.002C514.553 830.127 514.807 830.336 515.058 830.624C515.307 830.91 515.45 831.153 515.508 831.27L470.786 853.63C474.373 860.804 479.62 866.855 486.326 871.398L514.368 830.002ZM515.768 831.805C515.75 831.768 515.745 831.752 515.746 831.754C515.746 831.757 515.749 831.765 515.752 831.777C515.754 831.788 515.754 831.789 515.752 831.775C515.751 831.761 515.747 831.721 515.747 831.65H465.747C465.747 839.087 467.341 846.326 470.527 853.095L515.768 831.805ZM515.747 831.65C515.747 832.073 515.721 832.162 515.76 831.792C515.795 831.455 515.868 830.891 516.007 830.06L466.687 821.84C466.2 824.763 465.747 828.228 465.747 831.65H515.747ZM491.347 800.95H490.897V850.95H491.347V800.95ZM490.897 800.95C476.731 800.95 466.24 808.721 459.902 818.001L501.192 846.199C501.013 846.462 500.064 847.756 498.005 848.98C495.779 850.302 493.24 850.95 490.897 850.95V800.95ZM459.826 818.113C453.411 827.616 451.497 838.477 451.497 848.3H501.497C501.497 846.511 501.679 845.55 501.763 845.213C501.838 844.914 501.778 845.332 501.268 846.087L459.826 818.113ZM451.497 848.3C451.497 856.476 452.902 866.737 459.166 875.687L500.128 847.013C501.219 848.572 501.536 849.763 501.587 849.971C501.631 850.157 501.497 849.684 501.497 848.3H451.497ZM459.487 876.134C464.926 883.551 474.237 890.85 487.297 890.85V840.85C490.398 840.85 493.399 841.715 495.885 843.177C498.188 844.532 499.398 846.007 499.807 846.566L459.487 876.134ZM537.796 798.35L520.554 816.453L520.786 816.674L521.023 816.888L537.796 798.35ZM538.696 781.4L554.907 800.431L554.936 800.406L554.965 800.381L538.696 781.4ZM557.596 797.75L574.16 816.475L574.358 816.3L574.553 816.12L557.596 797.75ZM531.796 874.85L510.647 888.183L510.75 888.345L510.855 888.507L531.796 874.85ZM529.096 839.3L504.445 835.134L504.421 835.276L504.399 835.419L529.096 839.3ZM533.596 819.5L557.573 826.575L557.619 826.422L557.662 826.269L533.596 819.5ZM549.196 833.6L573.621 838.929L573.645 838.819L573.668 838.71L549.196 833.6ZM557.596 861.5L540.61 843.156L540.61 843.156L557.596 861.5ZM568.396 849.65L549.414 833.38L549.301 833.512L549.19 833.645L568.396 849.65ZM575.446 849.35L553.851 861.947L554.229 862.594L554.644 863.218L575.446 849.35ZM573.796 863.6L554.875 847.259L554.657 847.511L554.447 847.769L573.796 863.6ZM547.246 776.2C546.315 776.2 550.284 775.936 554.568 779.812L521.023 816.888C529.507 824.564 539.776 826.2 547.246 826.2V776.2ZM555.037 780.247C556.725 781.855 558.006 783.82 558.788 785.87C559.535 787.825 559.646 789.365 559.646 790.1H509.646C509.646 798.918 512.495 808.778 520.554 816.453L555.037 780.247ZM559.646 790.1C559.646 791.648 559.326 793.695 558.323 795.851C557.323 797.997 555.993 799.506 554.907 800.431L522.484 762.369C514.294 769.346 509.646 779.163 509.646 790.1H559.646ZM554.965 800.381C554.016 801.195 552.851 801.876 551.596 802.312C550.378 802.736 549.453 802.8 549.046 802.8V752.8C539.692 752.8 530.271 755.694 522.426 762.419L554.965 800.381ZM549.046 802.8C548.674 802.8 545.796 802.659 542.638 800.188L573.453 760.812C565.695 754.741 556.817 752.8 549.046 752.8V802.8ZM542.638 800.188C540.747 798.708 539.006 796.617 537.843 794.04C536.723 791.556 536.496 789.414 536.496 788.15H586.496C586.496 778.296 582.649 768.009 573.453 760.812L542.638 800.188ZM536.496 788.15C536.496 787.428 536.619 785.963 537.359 784.141C538.127 782.249 539.304 780.611 540.638 779.38L574.553 816.12C582.974 808.346 586.496 798.122 586.496 788.15H536.496ZM541.031 779.025C542.371 777.839 543.839 777.058 545.152 776.62C546.393 776.207 547.186 776.2 547.246 776.2V826.2C556.132 826.2 565.969 823.721 574.16 816.475L541.031 779.025ZM546.046 856.75C545.713 856.75 546.787 856.693 548.503 857.524C550.389 858.437 551.859 859.849 552.736 861.193L510.855 888.507C519.373 901.567 532.894 906.75 546.046 906.75V856.75ZM552.944 861.517C553.372 862.197 552.446 861.229 552.446 856.55H502.446C502.446 867.071 504.419 878.303 510.647 888.183L552.944 861.517ZM552.446 856.55C552.446 853.867 552.794 849.537 553.792 843.181L504.399 835.419C503.197 843.063 502.446 850.233 502.446 856.55H552.446ZM553.746 843.466C554.801 837.223 556.089 831.605 557.573 826.575L509.618 812.425C507.502 819.595 505.79 827.177 504.445 835.134L553.746 843.466ZM557.662 826.269C557.757 825.929 557.654 826.438 557.118 827.421C556.591 828.388 555.311 830.423 552.813 832.422L521.578 793.378C513.969 799.465 510.923 807.775 509.529 812.731L557.662 826.269ZM552.813 832.422C550.07 834.616 547.506 835.473 546.184 835.804C544.868 836.133 544.156 836.1 544.396 836.1V786.1C539.107 786.1 529.72 786.864 521.578 793.378L552.813 832.422ZM544.396 836.1C544.36 836.1 543.583 836.104 542.319 835.823C541.064 835.545 538.801 834.867 536.266 833.176C533.563 831.375 530.979 828.694 529.207 825.149C527.486 821.708 527.046 818.49 527.046 816.2H577.046C577.046 807.217 573.081 797.627 564.001 791.574C556.709 786.713 548.934 786.1 544.396 786.1V836.1ZM527.046 816.2C527.046 815.457 527.101 815.222 527.03 815.851C526.971 816.364 526.858 817.186 526.662 818.384C526.269 820.783 525.636 824.117 524.723 828.49L573.668 838.71C575.395 830.438 577.046 821.834 577.046 816.2H527.046ZM524.77 828.271C522.452 838.894 520.596 848.931 520.596 855.95H570.596C570.596 856.048 570.632 854.799 571.177 851.413C571.678 848.303 572.476 844.175 573.621 838.929L524.77 828.271ZM520.596 855.95C520.596 860.532 521.102 867.364 524.435 874.03L569.156 851.67C570.118 853.592 570.428 855.082 570.526 855.641C570.63 856.239 570.596 856.397 570.596 855.95H520.596ZM524.435 874.03C526.673 878.507 530.301 882.98 535.663 886.157C540.936 889.282 546.357 890.25 550.846 890.25V840.25C553.434 840.25 557.23 840.818 561.153 843.143C565.165 845.52 567.718 848.793 569.156 851.67L524.435 874.03ZM550.846 890.25C562.899 890.25 571.357 882.829 574.581 879.844L540.61 843.156C540.157 843.575 540.548 843.122 541.742 842.459C542.83 841.854 546.059 840.25 550.846 840.25V890.25ZM574.581 879.844C578.488 876.226 582.912 871.282 587.601 865.655L549.19 833.645C544.879 838.818 542.103 841.774 540.61 843.156L574.581 879.844ZM587.377 865.92C586.321 867.151 584.525 868.864 581.816 870.269C578.986 871.736 575.758 872.55 572.446 872.55V822.55C562.003 822.55 554.177 827.823 549.414 833.38L587.377 865.92ZM572.446 872.55C569.098 872.55 565.127 871.729 561.308 869.437C557.568 867.193 555.216 864.287 553.851 861.947L597.04 836.753C592.235 828.516 583.358 822.55 572.446 822.55V872.55ZM554.644 863.218C551.723 858.835 551.646 854.999 551.646 854.3H601.646C601.646 849.401 600.768 842.265 596.247 835.482L554.644 863.218ZM551.646 854.3C551.646 854.556 551.595 851.057 554.875 847.259L592.716 879.941C599.796 871.743 601.646 862.044 601.646 854.3H551.646ZM554.447 847.769C550.5 852.592 547.554 855.109 545.749 856.29C544.042 857.406 544.273 856.75 546.046 856.75V906.75C566.444 906.75 582.139 892.882 593.144 879.431L554.447 847.769ZM598.145 855.8L603.048 831.285L565.903 823.857L573.677 860.93L598.145 855.8ZM601.295 876.5L576.432 879.117L576.451 879.298L576.473 879.479L601.295 876.5ZM597.395 919.85L576.09 906.768L576.09 906.768L597.395 919.85ZM568.145 913.1L544.161 920.154L544.192 920.262L544.225 920.37L568.145 913.1ZM569.795 808.55L545.339 803.362L545.329 803.409L545.319 803.456L569.795 808.55ZM586.895 759.5L565.096 747.259L565.081 747.288L565.065 747.316L586.895 759.5ZM621.845 746.3L600.588 759.459L600.7 759.64L600.815 759.819L621.845 746.3ZM583.745 840.05L566.194 822.246L559.787 828.562L558.874 837.512L583.745 840.05ZM583.295 897.5L608.243 895.898L608.243 895.89L608.242 895.883L583.295 897.5ZM589.595 875.6L564.826 878.993L564.849 879.159L564.874 879.325L589.595 875.6ZM585.395 852.5L560.468 854.417L560.605 856.189L560.99 857.923L585.395 852.5ZM586.595 847.55L564.234 836.37L564.006 836.826L563.797 837.291L586.595 847.55ZM590.195 842.3L608.471 859.358L608.471 859.358L590.195 842.3ZM601.145 840.35L603.906 815.503L603.417 815.449L602.926 815.414L601.145 840.35ZM617.645 839.45L614.544 814.643L614.326 814.67L614.109 814.701L617.645 839.45ZM600.995 764L578.134 753.881L578.064 754.039L577.997 754.198L600.995 764ZM593.195 788.3L617.39 794.591L617.398 794.562L617.405 794.532L593.195 788.3ZM586.445 820.1L561.797 815.919L547.065 902.758L605.221 836.606L586.445 820.1ZM604.895 791.75L627.788 801.795L627.807 801.752L627.825 801.71L604.895 791.75ZM611.495 764L636.493 764.291L636.495 764.145V764H611.495ZM622.895 864C620.455 864 617.105 863.531 613.552 861.754C609.895 859.926 607.12 857.257 605.243 854.443C603.478 851.795 602.744 849.391 602.428 847.967C602.109 846.534 602.095 845.56 602.095 845.3H652.095C652.095 841.212 651.557 833.774 646.846 826.707C640.943 817.852 631.577 814 622.895 814V864ZM602.095 845.3C602.095 843.969 602.373 841.586 603.781 838.895C605.229 836.126 607.252 834.224 609.012 833.103C610.603 832.089 611.653 831.909 611.439 831.955C611.246 831.996 610.345 832.15 608.495 832.15V882.15C616.545 882.15 626.866 881.013 635.878 875.272C646.804 868.311 652.095 857.029 652.095 845.3H602.095ZM608.495 832.15C608.738 832.15 608.425 832.164 607.341 832.022C606.319 831.889 604.907 831.657 603.048 831.285L593.242 880.315C598.179 881.302 603.573 882.15 608.495 882.15V832.15ZM573.677 860.93C574.772 866.151 575.703 872.195 576.432 879.117L626.157 873.883C625.286 865.605 624.118 857.849 622.613 850.67L573.677 860.93ZM576.473 879.479C577.31 886.458 577.645 891.576 577.645 895.1H627.645C627.645 888.824 627.079 881.542 626.117 873.521L576.473 879.479ZM577.645 895.1C577.645 899.216 577.305 902.177 576.876 904.2C576.446 906.229 576.015 906.891 576.09 906.768L618.699 932.932C625.676 921.57 627.645 907.953 627.645 895.1H577.645ZM576.09 906.768C575.907 907.067 576.451 906.065 578.153 905.011C580.023 903.852 582.052 903.4 583.595 903.4V953.4C599.621 953.4 611.579 944.527 618.699 932.932L576.09 906.768ZM583.595 903.4C584.812 903.4 586.41 903.63 588.121 904.336C589.829 905.042 591.098 905.994 591.923 906.811C593.359 908.233 592.935 908.695 592.064 905.83L544.225 920.37C546.454 927.705 550.155 935.817 556.741 942.339C563.962 949.49 573.357 953.4 583.595 953.4V903.4ZM592.129 906.046C590.169 899.383 588.645 886.905 588.645 866.9H538.645C538.645 888.095 540.12 906.417 544.161 920.154L592.129 906.046ZM588.645 866.9C588.645 849.491 590.502 831.748 594.27 813.644L545.319 803.456C540.887 824.752 538.645 845.909 538.645 866.9H588.645ZM594.251 813.738C598.109 795.549 603.103 781.756 608.725 771.684L565.065 747.316C556.286 763.044 549.881 781.951 545.339 803.362L594.251 813.738ZM608.693 771.741C611.431 766.864 613.411 764.866 614.135 764.278C614.415 764.05 614.235 764.257 613.569 764.516C612.854 764.795 611.915 765 610.895 765V715C588.048 715 573.568 732.173 565.096 747.259L608.693 771.741ZM610.895 765C609.389 765 607.084 764.622 604.69 763.244C602.351 761.899 601.09 760.269 600.588 759.459L643.101 733.141C636.226 722.034 624.774 715 610.895 715V765ZM600.815 759.819C600.418 759.201 600.441 758.97 600.567 759.497C600.7 760.054 600.895 761.242 600.895 763.25H650.895C650.895 753.286 649.043 742.377 642.874 732.781L600.815 759.819ZM600.895 763.25C600.895 776.728 592.585 796.231 566.194 822.246L601.295 857.854C631.105 828.469 650.895 796.772 650.895 763.25H600.895ZM558.874 837.512C557.814 847.898 557.245 857.378 557.245 865.85H607.245C607.245 859.522 607.675 851.802 608.616 842.588L558.874 837.512ZM557.245 865.85C557.245 876.716 557.614 887.806 558.347 899.117L608.242 895.883C607.576 885.594 607.245 875.584 607.245 865.85H557.245ZM558.346 899.102C558.715 904.843 559.263 910.386 560.221 914.924C560.653 916.97 561.499 920.501 563.31 924.09C564.063 925.583 570.665 938.85 586.745 938.85V888.85C594.306 888.85 599.877 892.251 603.052 895.159C605.934 897.799 607.386 900.451 607.949 901.566C609.072 903.792 609.287 905.28 609.144 904.601C608.951 903.689 608.575 901.057 608.243 895.898L558.346 899.102ZM586.745 938.85C595.853 938.85 603.078 934.48 607.618 929.234C611.519 924.726 613.277 919.872 614.14 916.879C615.89 910.813 616.245 904.058 616.245 898.25H566.245C566.245 902.842 565.849 903.887 566.099 903.021C566.213 902.628 567.033 899.724 569.809 896.516C571.331 894.757 573.582 892.749 576.705 891.203C579.911 889.615 583.367 888.85 586.745 888.85V938.85ZM616.245 898.25C616.245 889.273 615.612 880.475 614.316 871.875L564.874 879.325C565.778 885.325 566.245 891.627 566.245 898.25H616.245ZM614.363 872.207C613.259 864.147 611.73 855.766 609.799 847.077L560.99 857.923C562.659 865.434 563.93 872.453 564.826 878.993L614.363 872.207ZM610.321 850.583C610.523 853.206 610.159 855.177 609.916 856.178C609.665 857.212 609.403 857.786 609.393 857.809L563.797 837.291C562.209 840.818 559.898 847.006 560.468 854.417L610.321 850.583ZM608.955 858.73C608.979 858.684 608.847 858.955 608.471 859.358L571.918 825.242C568.742 828.645 566.211 832.416 564.234 836.37L608.955 858.73ZM608.471 859.358C608.172 859.678 607.049 860.847 605.045 862.05C603.013 863.269 599.171 865.05 593.945 865.05V815.05C581.897 815.05 574.335 822.653 571.918 825.242L608.471 859.358ZM593.945 865.05C595.167 865.05 596.94 865.113 599.364 865.286L602.926 815.414C599.749 815.187 596.722 815.05 593.945 815.05V865.05ZM598.384 865.197C600.44 865.426 602.449 865.5 604.295 865.5V815.5C604.037 815.5 603.875 815.495 603.796 815.491C603.715 815.487 603.758 815.487 603.906 815.503L598.384 865.197ZM604.295 865.5C609.716 865.5 615.372 865.029 621.18 864.199L614.109 814.701C610.118 815.271 606.873 815.5 604.295 815.5V865.5ZM620.746 864.257C621.42 864.173 622.155 864.086 622.955 863.997L617.434 814.303C616.434 814.414 615.47 814.527 614.544 814.643L620.746 864.257ZM622.955 863.997C622.944 863.998 622.923 864 622.895 864V814C621.067 814 619.245 814.102 617.434 814.303L622.955 863.997ZM607.745 729.85C600.047 729.85 594.388 733.104 591.271 735.451C588.131 737.816 585.951 740.45 584.589 742.296C581.861 745.994 579.756 750.217 578.134 753.881L623.855 774.119C624.933 771.683 625.303 771.331 624.825 771.979C624.588 772.3 623.477 773.79 621.35 775.392C619.246 776.977 614.542 779.85 607.745 779.85V729.85ZM577.997 754.198C574.707 761.915 571.742 771.354 568.984 782.068L617.405 794.532C619.848 785.046 622.082 778.285 623.993 773.802L577.997 754.198ZM568.999 782.009C566.201 792.77 563.806 804.078 561.797 815.919L611.093 824.281C612.884 813.722 614.988 803.83 617.39 794.591L568.999 782.009ZM605.221 836.606C614.696 825.828 622.329 814.235 627.788 801.795L582.002 781.705C578.86 788.865 574.193 796.172 567.669 803.594L605.221 836.606ZM627.825 801.71C633.125 789.508 636.346 776.951 636.493 764.291L586.496 763.709C586.444 768.249 585.265 774.192 581.964 781.79L627.825 801.71ZM636.495 764C636.495 759.989 636.191 753.76 633.69 747.657C632.343 744.37 629.837 739.831 625.16 736.027C620.07 731.887 613.901 729.85 607.745 729.85V779.85C602.838 779.85 597.763 778.194 593.611 774.817C589.871 771.775 588.147 768.38 587.425 766.618C586.173 763.565 586.495 761.911 586.495 764H636.495ZM673.079 812L659.212 832.801L659.212 832.801L673.079 812ZM670.529 840.65L645.911 836.296L645.882 836.46L645.855 836.625L670.529 840.65ZM666.479 865.7L641.77 861.899L641.751 862.018L641.734 862.138L666.479 865.7ZM612.779 944.45L630.457 926.772L630.316 926.632L630.174 926.494L612.779 944.45ZM611.129 917.75L588.322 907.51L588.235 907.705L588.15 907.902L611.129 917.75ZM623.129 900.8L604.882 883.711L604.742 883.86L604.604 884.012L623.129 900.8ZM648.029 879.05L663.236 898.893L671.476 892.578L672.819 882.283L648.029 879.05ZM648.479 875.6L623.915 870.953L623.782 871.656L623.689 872.367L648.479 875.6ZM650.879 859.7L675.669 862.933L626.791 853.009L650.879 859.7ZM642.479 876.2L660.397 893.634L660.513 893.515L660.628 893.394L642.479 876.2ZM619.979 875.6L599.178 889.468L599.369 889.755L599.569 890.037L619.979 875.6ZM617.279 839.45L641.96 843.431L641.965 843.4L641.97 843.369L617.279 839.45ZM622.229 819.5L598.512 811.594L598.495 811.645L598.478 811.696L622.229 819.5ZM626.429 813.05L641.066 833.317L641.066 833.317L626.429 813.05ZM639.479 812.15L623.016 830.964L623.56 831.44L624.131 831.884L639.479 812.15ZM639.179 823.4L663.313 829.923L663.409 829.57L663.494 829.214L639.179 823.4ZM636.779 833.45L612.265 828.547L612.253 828.605L612.242 828.662L636.779 833.45ZM634.679 845.3L659.357 849.302L659.365 849.25L659.373 849.199L634.679 845.3ZM642.479 855.65L622.639 840.439L622.477 840.651L622.319 840.866L642.479 855.65ZM649.679 842L626.681 832.198L626.613 832.358L626.546 832.519L649.679 842ZM657.179 819.5L681.317 826.009L681.326 825.975L681.335 825.942L657.179 819.5ZM660.779 813.05L645.593 793.191L645.3 793.415L645.014 793.647L660.779 813.05ZM644.579 897.05L668.945 902.645L685.717 829.607L628.453 877.947L644.579 897.05ZM627.779 914.75L606.917 900.973L606.768 901.2L606.623 901.43L627.779 914.75ZM623.579 933.05L601.632 945.021L602.035 945.761L602.488 946.472L623.579 933.05ZM668.279 836.1C668.461 836.1 667.795 836.121 666.597 835.897C665.601 835.71 662.609 835.066 659.212 832.801L686.947 791.199C679.362 786.142 671.06 786.1 668.279 786.1V836.1ZM659.212 832.801C655.697 830.458 652.968 827.18 651.294 823.459C649.724 819.972 649.429 816.894 649.429 815H699.429C699.429 807.996 696.818 797.78 686.947 791.199L659.212 832.801ZM649.429 815C649.429 813.991 649.516 813.692 649.36 815.006C649.242 815.997 649.042 817.454 648.738 819.455C648.132 823.438 647.197 829.024 645.911 836.296L695.147 845.004C696.461 837.576 697.476 831.537 698.17 826.97C698.734 823.262 699.429 818.482 699.429 815H649.429ZM645.855 836.625C643.566 850.662 642.192 859.157 641.77 861.899L691.188 869.501C691.567 867.043 692.893 858.838 695.203 844.675L645.855 836.625ZM641.734 862.138C638.188 886.767 633.498 904.677 628.24 916.81L674.118 936.69C681.861 918.823 687.37 896.033 691.224 869.262L641.734 862.138ZM628.24 916.81C625.887 922.241 623.99 924.259 623.439 924.736C623.248 924.902 623.411 924.719 623.931 924.518C624.474 924.309 624.967 924.25 625.229 924.25V974.25C650.756 974.25 665.979 955.473 674.118 936.69L628.24 916.81ZM625.229 924.25C625.309 924.25 626.102 924.268 627.285 924.724C628.525 925.202 629.633 925.948 630.457 926.772L595.101 962.128C603.602 970.628 614.417 974.25 625.229 974.25V924.25ZM630.174 926.494C631.12 927.41 631.947 928.624 632.469 929.961C632.963 931.23 632.979 932.077 632.979 932.15H582.979C582.979 942.949 586.606 953.902 595.384 962.406L630.174 926.494ZM632.979 932.15C632.979 931.261 633.163 929.803 634.108 927.598L588.15 907.902C584.895 915.497 582.979 923.639 582.979 932.15H632.979ZM633.936 927.99C634.61 926.488 636.682 923.074 641.654 917.588L604.604 884.012C597.976 891.326 592.048 899.212 588.322 907.51L633.936 927.99ZM641.377 917.889C645.973 912.981 653.091 906.667 663.236 898.893L632.822 859.207C621.567 867.833 612.085 876.019 604.882 883.711L641.377 917.889ZM672.819 882.283L673.269 878.833L623.689 872.367L623.239 875.817L672.819 882.283ZM673.043 880.247C673.877 875.84 674.75 869.983 675.669 862.933L626.089 856.467C625.209 863.217 624.481 867.96 623.915 870.953L673.043 880.247ZM626.791 853.009C625.446 857.851 624.18 859.165 624.33 859.006L660.628 893.394C667.978 885.635 672.312 875.949 674.967 866.391L626.791 853.009ZM624.561 858.766C624.345 858.988 624.783 858.47 625.986 857.885C627.297 857.246 629.073 856.75 631.079 856.75V906.75C643.641 906.75 653.526 900.696 660.397 893.634L624.561 858.766ZM631.079 856.75C632.788 856.75 634.95 857.184 637.045 858.345C639.043 859.452 640.071 860.713 640.389 861.163L599.569 890.037C606.523 899.869 617.429 906.75 631.079 906.75V856.75ZM640.78 861.732C640.984 862.038 641.011 862.205 640.969 862.051C640.919 861.861 640.779 861.229 640.779 860H590.779C590.779 870.001 593.072 880.308 599.178 889.468L640.78 861.732ZM640.779 860C640.779 853.586 641.209 848.091 641.96 843.431L592.598 835.469C591.35 843.209 590.779 851.414 590.779 860H640.779ZM641.97 843.369C642.732 838.571 644.034 833.226 645.98 827.304L598.478 811.696C595.824 819.774 593.827 827.729 592.588 835.531L641.97 843.369ZM645.946 827.406C645.922 827.479 645.675 828.211 644.979 829.279C644.258 830.387 643.016 831.909 641.066 833.317L611.792 792.783C604.286 798.204 600.491 805.659 598.512 811.594L645.946 827.406ZM641.066 833.317C638.533 835.147 636.338 835.765 635.476 835.962C634.588 836.164 634.32 836.1 634.979 836.1V786.1C629.345 786.1 620.019 786.841 611.792 792.783L641.066 833.317ZM634.979 836.1C634.908 836.1 633.791 836.109 632.073 835.709C630.501 835.342 626.777 834.255 623.016 830.964L655.942 793.336C647.709 786.132 637.81 786.1 634.979 786.1V836.1ZM624.131 831.884C621.235 829.632 618.951 826.665 617.513 823.31C616.14 820.106 615.829 817.242 615.829 815.3H665.829C665.829 808.134 663.206 798.933 654.828 792.416L624.131 831.884ZM615.829 815.3C615.829 814.664 615.855 814.152 615.877 813.819C615.9 813.473 615.927 813.196 615.947 813.009C615.986 812.648 616.022 812.417 616.029 812.375C616.041 812.298 616.018 812.451 615.92 812.935C615.727 813.883 615.388 815.396 614.865 817.586L663.494 829.214C664.07 826.804 664.557 824.667 664.914 822.915C665.051 822.24 665.829 818.721 665.829 815.3H615.829ZM615.045 816.877C613.935 820.986 612.996 824.888 612.265 828.547L661.294 838.353C661.762 836.012 662.424 833.214 663.313 829.923L615.045 816.877ZM612.242 828.662C611.389 833.033 610.636 837.28 609.985 841.401L659.373 849.199C659.922 845.72 660.569 842.067 661.316 838.238L612.242 828.662ZM610.001 841.298C609.292 845.674 608.779 850.184 608.779 854.45H658.779C658.779 853.916 658.866 852.326 659.357 849.302L610.001 841.298ZM608.779 854.45C608.779 857.834 609.105 864.338 612.686 870.817C614.684 874.434 617.863 878.321 622.639 881.201C627.457 884.107 632.511 885.15 636.929 885.15V835.15C640.297 835.15 644.433 835.955 648.463 838.386C652.451 840.792 654.974 843.966 656.448 846.633C657.843 849.157 658.358 851.308 658.562 852.415C658.776 853.574 658.779 854.32 658.779 854.45H608.779ZM636.929 885.15C645.929 885.15 652.263 880.814 655.187 878.444C658.434 875.811 660.896 872.811 662.639 870.434L622.319 840.866C621.862 841.489 622.299 840.739 623.697 839.606C624.77 838.736 629.43 835.15 636.929 835.15V885.15ZM662.319 870.861C666.605 865.271 669.996 858.351 672.812 851.481L626.546 832.519C625.521 835.021 624.63 836.925 623.892 838.324C623.528 839.014 623.228 839.53 622.999 839.897C622.886 840.078 622.798 840.213 622.734 840.305C622.67 840.398 622.638 840.44 622.639 840.439L662.319 870.861ZM672.677 851.802C675.87 844.311 678.721 835.634 681.317 826.009L633.041 812.991C630.837 821.166 628.688 827.489 626.681 832.198L672.677 851.802ZM681.335 825.942C681.333 825.95 681.142 826.688 680.509 827.822C679.857 828.99 678.633 830.755 676.544 832.453L645.014 793.647C637.72 799.574 634.532 807.4 633.023 813.058L681.335 825.942ZM675.965 832.909C673.681 834.656 671.542 835.439 670.22 835.783C668.94 836.116 668.196 836.1 668.279 836.1V786.1C662.293 786.1 653.452 787.181 645.593 793.191L675.965 832.909ZM626.879 959.7C638.079 959.7 645.51 953.338 648.839 949.89C652.533 946.064 655.281 941.612 657.327 937.784L613.231 914.216C612.177 916.188 611.975 916.086 612.869 915.16C613.398 914.612 618.18 909.7 626.879 909.7V959.7ZM657.327 937.784C662.089 928.877 665.77 916.47 668.945 902.645L620.213 891.455C617.188 904.63 614.67 911.524 613.231 914.216L657.327 937.784ZM628.453 877.947C619.863 885.197 612.271 892.867 606.917 900.973L648.641 928.527C650.288 926.033 653.895 921.903 660.705 916.153L628.453 877.947ZM606.623 901.43C602.073 908.657 597.679 918.107 597.679 928.85H647.679C647.679 930.371 647.364 931.105 647.464 930.828C647.506 930.712 647.622 930.418 647.864 929.937C648.106 929.459 648.452 928.838 648.935 928.07L606.623 901.43ZM597.679 928.85C597.679 933.306 598.441 939.172 601.632 945.021L645.526 921.079C647.517 924.728 647.679 927.794 647.679 928.85H597.679ZM602.488 946.472C608.533 955.971 618.342 959.7 626.879 959.7V909.7C629.171 909.7 632.508 910.126 636.109 911.927C639.859 913.802 642.74 916.595 644.671 919.628L602.488 946.472Z" fill="white" mask="url(#path-3-outside-2_6_31)"/>
<defs>
<linearGradient id="paint0_linear_6_31" x1="279" y1="-162" x2="279" y2="1243" gradientUnits="userSpaceOnUse">
<stop offset="0.285" stop-color="#FF0000"/>
<stop offset="0.48" stop-color="#FFB7B7"/>
<stop offset="0.645" stop-color="#9E0303"/>
</linearGradient>
<linearGradient id="paint1_linear_6_31" x1="527.5" y1="686" x2="527.5" y2="949" gradientUnits="userSpaceOnUse">
<stop offset="0.285" stop-color="#FF0000"/>
<stop offset="0.48" stop-color="#FFB7B7"/>
<stop offset="0.645" stop-color="#9E0303"/>
</linearGradient>
</defs>
</svg>
